<?xml version="1.0" encoding="UTF-8" standalone="no"?><svg xmlns="http://www.w3.org/2000/svg" xmlns:xlink="http://www.w3.org/1999/xlink" contentScriptType="application/ecmascript" contentStyleType="text/css" height="616px" preserveAspectRatio="none" style="width:1131px;height:616px;" version="1.1" viewBox="0 0 1131 616" width="1131px" zoomAndPan="magnify"><defs><filter height="300%" id="f11elo3ry0wk06" width="300%" x="-1" y="-1"><feGaussianBlur result="blurOut" stdDeviation="2.0"/><feColorMatrix in="blurOut" result="blurOut2" type="matrix" values="0 0 0 0 0 0 0 0 0 0 0 0 0 0 0 0 0 0 .4 0"/><feOffset dx="4.0" dy="4.0" in="blurOut2" result="blurOut3"/><feBlend in="SourceGraphic" in2="blurOut3" mode="normal"/></filter></defs><g><!--MD5=[b157ec9f1808b89c668ab80b58f83736]
class Vehicule--><rect codeLine="1" fill="#FEFECE" filter="url(#f11elo3ry0wk06)" height="60.8047" id="Vehicule" style="stroke:#A80036;stroke-width:1.5;" width="269" x="127.5" y="7"/><ellipse cx="232.25" cy="23" fill="#B4A7E5" rx="11" ry="11" style="stroke:#A80036;stroke-width:1.0;"/><path d="M233.2031,19.7813 L234.9219,19.7813 C235.3125,19.7813 235.5,19.75 235.625,19.6719 C235.8906,19.5156 236.0313,19.2344 236.0313,18.9375 C236.0313,18.6719 235.9219,18.4063 235.6875,18.2344 C235.5156,18.125 235.375,18.0938 234.9219,18.0938 L229.7813,18.0938 C229.3438,18.0938 229.2188,18.1094 229.0625,18.2031 C228.8125,18.3594 228.6563,18.6563 228.6563,18.9375 C228.6563,19.2188 228.7969,19.4688 229.0156,19.6406 C229.1719,19.75 229.3594,19.7813 229.7813,19.7813 L231.5,19.7813 L231.5,26.2969 L229.7813,26.2969 C229.3438,26.2969 229.2188,26.3125 229.0625,26.4219 C228.8125,26.5781 228.6563,26.8594 228.6563,27.1563 C228.6563,27.4063 228.7969,27.6719 229.0156,27.8281 C229.1719,27.9531 229.375,28 229.7813,28 L234.9219,28 C235.6719,28 236.0313,27.7188 236.0313,27.1563 C236.0313,26.875 235.9219,26.625 235.6875,26.4531 C235.5156,26.3281 235.375,26.2969 234.9219,26.2969 L233.2031,26.2969 L233.2031,19.7813 Z " fill="#000000"/><text fill="#000000" font-family="sans-serif" font-size="12" font-style="italic" lengthAdjust="spacing" textLength="51" x="252.75" y="27.1543">Vehicule</text><line style="stroke:#A80036;stroke-width:1.5;" x1="128.5" x2="395.5" y1="39" y2="39"/><line style="stroke:#A80036;stroke-width:1.5;" x1="128.5" x2="395.5" y1="47" y2="47"/><ellipse cx="138.5" cy="58" fill="#84BE84" rx="3" ry="3" style="stroke:#038048;stroke-width:1.0;"/><text fill="#000000" font-family="sans-serif" font-size="11" lengthAdjust="spacing" textLength="243" x="147.5" y="61.2104">transporter(List&lt;Passage&gt; passages): void</text><!--MD5=[3981e6f9708fcc4cdf0bff8b3ce01c19]
class VehiculeARoue--><rect codeLine="5" fill="#FEFECE" filter="url(#f11elo3ry0wk06)" height="60.8047" id="VehiculeARoue" style="stroke:#A80036;stroke-width:1.5;" width="121" x="201.5" y="140.5"/><ellipse cx="216.5" cy="156.5" fill="#B4A7E5" rx="11" ry="11" style="stroke:#A80036;stroke-width:1.0;"/><path d="M217.4531,153.2813 L219.1719,153.2813 C219.5625,153.2813 219.75,153.25 219.875,153.1719 C220.1406,153.0156 220.2813,152.7344 220.2813,152.4375 C220.2813,152.1719 220.1719,151.9063 219.9375,151.7344 C219.7656,151.625 219.625,151.5938 219.1719,151.5938 L214.0313,151.5938 C213.5938,151.5938 213.4688,151.6094 213.3125,151.7031 C213.0625,151.8594 212.9063,152.1563 212.9063,152.4375 C212.9063,152.7188 213.0469,152.9688 213.2656,153.1406 C213.4219,153.25 213.6094,153.2813 214.0313,153.2813 L215.75,153.2813 L215.75,159.7969 L214.0313,159.7969 C213.5938,159.7969 213.4688,159.8125 213.3125,159.9219 C213.0625,160.0781 212.9063,160.3594 212.9063,160.6563 C212.9063,160.9063 213.0469,161.1719 213.2656,161.3281 C213.4219,161.4531 213.625,161.5 214.0313,161.5 L219.1719,161.5 C219.9219,161.5 220.2813,161.2188 220.2813,160.6563 C220.2813,160.375 220.1719,160.125 219.9375,159.9531 C219.7656,159.8281 219.625,159.7969 219.1719,159.7969 L217.4531,159.7969 L217.4531,153.2813 Z " fill="#000000"/><text fill="#000000" font-family="sans-serif" font-size="12" font-style="italic" lengthAdjust="spacing" textLength="89" x="230.5" y="160.6543">VehiculeARoue</text><line style="stroke:#A80036;stroke-width:1.5;" x1="202.5" x2="321.5" y1="172.5" y2="172.5"/><line style="stroke:#A80036;stroke-width:1.5;" x1="202.5" x2="321.5" y1="180.5" y2="180.5"/><ellipse cx="212.5" cy="191.5" fill="#84BE84" rx="3" ry="3" style="stroke:#038048;stroke-width:1.0;"/><text fill="#000000" font-family="sans-serif" font-size="11" lengthAdjust="spacing" textLength="83" x="221.5" y="194.7104">getRoues(): int</text><!--MD5=[70e052c93e13f826644e166c490511a3]
class VehiculeMotorise--><rect codeLine="9" fill="#FEFECE" filter="url(#f11elo3ry0wk06)" height="60.8047" id="VehiculeMotorise" style="stroke:#A80036;stroke-width:1.5;" width="138" x="28" y="140.5"/><ellipse cx="45.25" cy="156.5" fill="#B4A7E5" rx="11" ry="11" style="stroke:#A80036;stroke-width:1.0;"/><path d="M46.2031,153.2813 L47.9219,153.2813 C48.3125,153.2813 48.5,153.25 48.625,153.1719 C48.8906,153.0156 49.0313,152.7344 49.0313,152.4375 C49.0313,152.1719 48.9219,151.9063 48.6875,151.7344 C48.5156,151.625 48.375,151.5938 47.9219,151.5938 L42.7813,151.5938 C42.3438,151.5938 42.2188,151.6094 42.0625,151.7031 C41.8125,151.8594 41.6563,152.1563 41.6563,152.4375 C41.6563,152.7188 41.7969,152.9688 42.0156,153.1406 C42.1719,153.25 42.3594,153.2813 42.7813,153.2813 L44.5,153.2813 L44.5,159.7969 L42.7813,159.7969 C42.3438,159.7969 42.2188,159.8125 42.0625,159.9219 C41.8125,160.0781 41.6563,160.3594 41.6563,160.6563 C41.6563,160.9063 41.7969,161.1719 42.0156,161.3281 C42.1719,161.4531 42.375,161.5 42.7813,161.5 L47.9219,161.5 C48.6719,161.5 49.0313,161.2188 49.0313,160.6563 C49.0313,160.375 48.9219,160.125 48.6875,159.9531 C48.5156,159.8281 48.375,159.7969 47.9219,159.7969 L46.2031,159.7969 L46.2031,153.2813 Z " fill="#000000"/><text fill="#000000" font-family="sans-serif" font-size="12" font-style="italic" lengthAdjust="spacing" textLength="101" x="59.75" y="160.6543">VehiculeMotorise</text><line style="stroke:#A80036;stroke-width:1.5;" x1="29" x2="165" y1="172.5" y2="172.5"/><line style="stroke:#A80036;stroke-width:1.5;" x1="29" x2="165" y1="180.5" y2="180.5"/><ellipse cx="39" cy="191.5" fill="#84BE84" rx="3" ry="3" style="stroke:#038048;stroke-width:1.0;"/><text fill="#000000" font-family="sans-serif" font-size="11" lengthAdjust="spacing" textLength="112" x="48" y="194.7104">getMoteur(): Moteur</text><!--MD5=[1d3308a050e4b472ad871965582028ae]
class Voiture--><rect codeLine="13" fill="#FEFECE" filter="url(#f11elo3ry0wk06)" height="48" id="Voiture" style="stroke:#A80036;stroke-width:1.5;" width="75" x="212.5" y="287"/><ellipse cx="227.5" cy="303" fill="#B4A7E5" rx="11" ry="11" style="stroke:#A80036;stroke-width:1.0;"/><path d="M228.4531,299.7813 L230.1719,299.7813 C230.5625,299.7813 230.75,299.75 230.875,299.6719 C231.1406,299.5156 231.2813,299.2344 231.2813,298.9375 C231.2813,298.6719 231.1719,298.4063 230.9375,298.2344 C230.7656,298.125 230.625,298.0938 230.1719,298.0938 L225.0313,298.0938 C224.5938,298.0938 224.4688,298.1094 224.3125,298.2031 C224.0625,298.3594 223.9063,298.6563 223.9063,298.9375 C223.9063,299.2188 224.0469,299.4688 224.2656,299.6406 C224.4219,299.75 224.6094,299.7813 225.0313,299.7813 L226.75,299.7813 L226.75,306.2969 L225.0313,306.2969 C224.5938,306.2969 224.4688,306.3125 224.3125,306.4219 C224.0625,306.5781 223.9063,306.8594 223.9063,307.1563 C223.9063,307.4063 224.0469,307.6719 224.2656,307.8281 C224.4219,307.9531 224.625,308 225.0313,308 L230.1719,308 C230.9219,308 231.2813,307.7188 231.2813,307.1563 C231.2813,306.875 231.1719,306.625 230.9375,306.4531 C230.7656,306.3281 230.625,306.2969 230.1719,306.2969 L228.4531,306.2969 L228.4531,299.7813 Z " fill="#000000"/><text fill="#000000" font-family="sans-serif" font-size="12" font-style="italic" lengthAdjust="spacing" textLength="43" x="241.5" y="307.1543">Voiture</text><line style="stroke:#A80036;stroke-width:1.5;" x1="213.5" x2="286.5" y1="319" y2="319"/><line style="stroke:#A80036;stroke-width:1.5;" x1="213.5" x2="286.5" y1="327" y2="327"/><!--MD5=[2b79b7536f4e96f5c913208b633bce6d]
class Moto--><rect codeLine="17" fill="#FEFECE" filter="url(#f11elo3ry0wk06)" height="48" id="Moto" style="stroke:#A80036;stroke-width:1.5;" width="61" x="116.5" y="287"/><ellipse cx="131.5" cy="303" fill="#B4A7E5" rx="11" ry="11" style="stroke:#A80036;stroke-width:1.0;"/><path d="M132.4531,299.7813 L134.1719,299.7813 C134.5625,299.7813 134.75,299.75 134.875,299.6719 C135.1406,299.5156 135.2813,299.2344 135.2813,298.9375 C135.2813,298.6719 135.1719,298.4063 134.9375,298.2344 C134.7656,298.125 134.625,298.0938 134.1719,298.0938 L129.0313,298.0938 C128.5938,298.0938 128.4688,298.1094 128.3125,298.2031 C128.0625,298.3594 127.9063,298.6563 127.9063,298.9375 C127.9063,299.2188 128.0469,299.4688 128.2656,299.6406 C128.4219,299.75 128.6094,299.7813 129.0313,299.7813 L130.75,299.7813 L130.75,306.2969 L129.0313,306.2969 C128.5938,306.2969 128.4688,306.3125 128.3125,306.4219 C128.0625,306.5781 127.9063,306.8594 127.9063,307.1563 C127.9063,307.4063 128.0469,307.6719 128.2656,307.8281 C128.4219,307.9531 128.625,308 129.0313,308 L134.1719,308 C134.9219,308 135.2813,307.7188 135.2813,307.1563 C135.2813,306.875 135.1719,306.625 134.9375,306.4531 C134.7656,306.3281 134.625,306.2969 134.1719,306.2969 L132.4531,306.2969 L132.4531,299.7813 Z " fill="#000000"/><text fill="#000000" font-family="sans-serif" font-size="12" font-style="italic" lengthAdjust="spacing" textLength="29" x="145.5" y="307.1543">Moto</text><line style="stroke:#A80036;stroke-width:1.5;" x1="117.5" x2="176.5" y1="319" y2="319"/><line style="stroke:#A80036;stroke-width:1.5;" x1="117.5" x2="176.5" y1="327" y2="327"/><!--MD5=[01f9a401cf506495089c678bd476f389]
class Avion--><rect codeLine="21" fill="#FEFECE" filter="url(#f11elo3ry0wk06)" height="48" id="Avion" style="stroke:#A80036;stroke-width:1.5;" width="65" x="574.5" y="287"/><ellipse cx="589.5" cy="303" fill="#B4A7E5" rx="11" ry="11" style="stroke:#A80036;stroke-width:1.0;"/><path d="M590.4531,299.7813 L592.1719,299.7813 C592.5625,299.7813 592.75,299.75 592.875,299.6719 C593.1406,299.5156 593.2813,299.2344 593.2813,298.9375 C593.2813,298.6719 593.1719,298.4063 592.9375,298.2344 C592.7656,298.125 592.625,298.0938 592.1719,298.0938 L587.0313,298.0938 C586.5938,298.0938 586.4688,298.1094 586.3125,298.2031 C586.0625,298.3594 585.9063,298.6563 585.9063,298.9375 C585.9063,299.2188 586.0469,299.4688 586.2656,299.6406 C586.4219,299.75 586.6094,299.7813 587.0313,299.7813 L588.75,299.7813 L588.75,306.2969 L587.0313,306.2969 C586.5938,306.2969 586.4688,306.3125 586.3125,306.4219 C586.0625,306.5781 585.9063,306.8594 585.9063,307.1563 C585.9063,307.4063 586.0469,307.6719 586.2656,307.8281 C586.4219,307.9531 586.625,308 587.0313,308 L592.1719,308 C592.9219,308 593.2813,307.7188 593.2813,307.1563 C593.2813,306.875 593.1719,306.625 592.9375,306.4531 C592.7656,306.3281 592.625,306.2969 592.1719,306.2969 L590.4531,306.2969 L590.4531,299.7813 Z " fill="#000000"/><text fill="#000000" font-family="sans-serif" font-size="12" font-style="italic" lengthAdjust="spacing" textLength="33" x="603.5" y="307.1543">Avion</text><line style="stroke:#A80036;stroke-width:1.5;" x1="575.5" x2="638.5" y1="319" y2="319"/><line style="stroke:#A80036;stroke-width:1.5;" x1="575.5" x2="638.5" y1="327" y2="327"/><!--MD5=[9a3d993f56569abc3eddc2cb29435cd6]
class VehiculeVolant--><rect codeLine="28" fill="#FEFECE" filter="url(#f11elo3ry0wk06)" height="60.8047" id="VehiculeVolant" style="stroke:#A80036;stroke-width:1.5;" width="121" x="370.5" y="140.5"/><ellipse cx="385.5" cy="156.5" fill="#B4A7E5" rx="11" ry="11" style="stroke:#A80036;stroke-width:1.0;"/><path d="M386.4531,153.2813 L388.1719,153.2813 C388.5625,153.2813 388.75,153.25 388.875,153.1719 C389.1406,153.0156 389.2813,152.7344 389.2813,152.4375 C389.2813,152.1719 389.1719,151.9063 388.9375,151.7344 C388.7656,151.625 388.625,151.5938 388.1719,151.5938 L383.0313,151.5938 C382.5938,151.5938 382.4688,151.6094 382.3125,151.7031 C382.0625,151.8594 381.9063,152.1563 381.9063,152.4375 C381.9063,152.7188 382.0469,152.9688 382.2656,153.1406 C382.4219,153.25 382.6094,153.2813 383.0313,153.2813 L384.75,153.2813 L384.75,159.7969 L383.0313,159.7969 C382.5938,159.7969 382.4688,159.8125 382.3125,159.9219 C382.0625,160.0781 381.9063,160.3594 381.9063,160.6563 C381.9063,160.9063 382.0469,161.1719 382.2656,161.3281 C382.4219,161.4531 382.625,161.5 383.0313,161.5 L388.1719,161.5 C388.9219,161.5 389.2813,161.2188 389.2813,160.6563 C389.2813,160.375 389.1719,160.125 388.9375,159.9531 C388.7656,159.8281 388.625,159.7969 388.1719,159.7969 L386.4531,159.7969 L386.4531,153.2813 Z " fill="#000000"/><text fill="#000000" font-family="sans-serif" font-size="12" font-style="italic" lengthAdjust="spacing" textLength="89" x="399.5" y="160.6543">VehiculeVolant</text><line style="stroke:#A80036;stroke-width:1.5;" x1="371.5" x2="490.5" y1="172.5" y2="172.5"/><line style="stroke:#A80036;stroke-width:1.5;" x1="371.5" x2="490.5" y1="180.5" y2="180.5"/><ellipse cx="381.5" cy="191.5" fill="#84BE84" rx="3" ry="3" style="stroke:#038048;stroke-width:1.0;"/><text fill="#000000" font-family="sans-serif" font-size="11" lengthAdjust="spacing" textLength="68" x="390.5" y="194.7104">voler(): void</text><!--MD5=[712d4a70119cd1aeb8f2588fd6df42c9]
class Bateau--><rect codeLine="25" fill="#FEFECE" filter="url(#f11elo3ry0wk06)" height="48" id="Bateau" style="stroke:#A80036;stroke-width:1.5;" width="74" x="7" y="287"/><ellipse cx="22" cy="303" fill="#B4A7E5" rx="11" ry="11" style="stroke:#A80036;stroke-width:1.0;"/><path d="M22.9531,299.7813 L24.6719,299.7813 C25.0625,299.7813 25.25,299.75 25.375,299.6719 C25.6406,299.5156 25.7813,299.2344 25.7813,298.9375 C25.7813,298.6719 25.6719,298.4063 25.4375,298.2344 C25.2656,298.125 25.125,298.0938 24.6719,298.0938 L19.5313,298.0938 C19.0938,298.0938 18.9688,298.1094 18.8125,298.2031 C18.5625,298.3594 18.4063,298.6563 18.4063,298.9375 C18.4063,299.2188 18.5469,299.4688 18.7656,299.6406 C18.9219,299.75 19.1094,299.7813 19.5313,299.7813 L21.25,299.7813 L21.25,306.2969 L19.5313,306.2969 C19.0938,306.2969 18.9688,306.3125 18.8125,306.4219 C18.5625,306.5781 18.4063,306.8594 18.4063,307.1563 C18.4063,307.4063 18.5469,307.6719 18.7656,307.8281 C18.9219,307.9531 19.125,308 19.5313,308 L24.6719,308 C25.4219,308 25.7813,307.7188 25.7813,307.1563 C25.7813,306.875 25.6719,306.625 25.4375,306.4531 C25.2656,306.3281 25.125,306.2969 24.6719,306.2969 L22.9531,306.2969 L22.9531,299.7813 Z " fill="#000000"/><text fill="#000000" font-family="sans-serif" font-size="12" font-style="italic" lengthAdjust="spacing" textLength="42" x="36" y="307.1543">Bateau</text><line style="stroke:#A80036;stroke-width:1.5;" x1="8" x2="80" y1="319" y2="319"/><line style="stroke:#A80036;stroke-width:1.5;" x1="8" x2="80" y1="327" y2="327"/><!--MD5=[fd1c056ef48d44efd1d7aae642aab92f]
class Moteur--><rect codeLine="32" fill="#FEFECE" filter="url(#f11elo3ry0wk06)" height="86.4141" id="Moteur" style="stroke:#A80036;stroke-width:1.5;" width="119" x="856.5" y="128"/><ellipse cx="891.75" cy="144" fill="#B4A7E5" rx="11" ry="11" style="stroke:#A80036;stroke-width:1.0;"/><path d="M892.7031,140.7813 L894.4219,140.7813 C894.8125,140.7813 895,140.75 895.125,140.6719 C895.3906,140.5156 895.5313,140.2344 895.5313,139.9375 C895.5313,139.6719 895.4219,139.4063 895.1875,139.2344 C895.0156,139.125 894.875,139.0938 894.4219,139.0938 L889.2813,139.0938 C888.8438,139.0938 888.7188,139.1094 888.5625,139.2031 C888.3125,139.3594 888.1563,139.6563 888.1563,139.9375 C888.1563,140.2188 888.2969,140.4688 888.5156,140.6406 C888.6719,140.75 888.8594,140.7813 889.2813,140.7813 L891,140.7813 L891,147.2969 L889.2813,147.2969 C888.8438,147.2969 888.7188,147.3125 888.5625,147.4219 C888.3125,147.5781 888.1563,147.8594 888.1563,148.1563 C888.1563,148.4063 888.2969,148.6719 888.5156,148.8281 C888.6719,148.9531 888.875,149 889.2813,149 L894.4219,149 C895.1719,149 895.5313,148.7188 895.5313,148.1563 C895.5313,147.875 895.4219,147.625 895.1875,147.4531 C895.0156,147.3281 894.875,147.2969 894.4219,147.2969 L892.7031,147.2969 L892.7031,140.7813 Z " fill="#000000"/><text fill="#000000" font-family="sans-serif" font-size="12" font-style="italic" lengthAdjust="spacing" textLength="42" x="910.25" y="148.1543">Moteur</text><line style="stroke:#A80036;stroke-width:1.5;" x1="857.5" x2="974.5" y1="160" y2="160"/><line style="stroke:#A80036;stroke-width:1.5;" x1="857.5" x2="974.5" y1="168" y2="168"/><ellipse cx="867.5" cy="179" fill="#84BE84" rx="3" ry="3" style="stroke:#038048;stroke-width:1.0;"/><text fill="#000000" font-family="sans-serif" font-size="11" lengthAdjust="spacing" textLength="92" x="876.5" y="182.2104">demarrer(): void</text><ellipse cx="867.5" cy="191.8047" fill="#84BE84" rx="3" ry="3" style="stroke:#038048;stroke-width:1.0;"/><text fill="#000000" font-family="sans-serif" font-size="11" lengthAdjust="spacing" textLength="78" x="876.5" y="195.0151">arreter(): void</text><ellipse cx="867.5" cy="204.6094" fill="#84BE84" rx="3" ry="3" style="stroke:#038048;stroke-width:1.0;"/><text fill="#000000" font-family="sans-serif" font-size="11" lengthAdjust="spacing" textLength="93" x="876.5" y="207.8198">accelerer(): void</text><!--MD5=[fd3f56d769bb90d897615ab2b996d98e]
class MoteurXXX--><rect codeLine="38" fill="#FEFECE" filter="url(#f11elo3ry0wk06)" height="48" id="MoteurXXX" style="stroke:#A80036;stroke-width:1.5;" width="98" x="1019" y="287"/><ellipse cx="1034" cy="303" fill="#ADD1B2" rx="11" ry="11" style="stroke:#A80036;stroke-width:1.0;"/><path d="M1036.3438,298.6719 C1035.4063,298.2344 1034.8125,298.0938 1033.9375,298.0938 C1031.3125,298.0938 1029.3125,300.1719 1029.3125,302.8906 L1029.3125,304.0156 C1029.3125,306.5938 1031.4219,308.4844 1034.3125,308.4844 C1035.5313,308.4844 1036.6875,308.1875 1037.4375,307.6406 C1038.0156,307.2344 1038.3438,306.7813 1038.3438,306.3906 C1038.3438,305.9375 1037.9531,305.5469 1037.4844,305.5469 C1037.2656,305.5469 1037.0625,305.625 1036.875,305.8125 C1036.4219,306.2969 1036.4219,306.2969 1036.2344,306.3906 C1035.8125,306.6563 1035.125,306.7813 1034.3594,306.7813 C1032.3125,306.7813 1031.0156,305.6875 1031.0156,303.9844 L1031.0156,302.8906 C1031.0156,301.1094 1032.2656,299.7969 1034,299.7969 C1034.5781,299.7969 1035.1875,299.9531 1035.6563,300.2031 C1036.1406,300.4844 1036.3125,300.7031 1036.4063,301.1094 C1036.4688,301.5156 1036.5,301.6406 1036.6406,301.7656 C1036.7813,301.9063 1037.0156,302.0156 1037.2344,302.0156 C1037.5,302.0156 1037.7656,301.875 1037.9375,301.6563 C1038.0469,301.5 1038.0781,301.3125 1038.0781,300.8906 L1038.0781,299.4688 C1038.0781,299.0313 1038.0625,298.9063 1037.9688,298.75 C1037.8125,298.4844 1037.5313,298.3438 1037.2344,298.3438 C1036.9375,298.3438 1036.7344,298.4375 1036.5156,298.75 L1036.3438,298.6719 Z " fill="#000000"/><text fill="#000000" font-family="sans-serif" font-size="12" lengthAdjust="spacing" textLength="66" x="1048" y="307.1543">MoteurXXX</text><line style="stroke:#A80036;stroke-width:1.5;" x1="1020" x2="1116" y1="319" y2="319"/><line style="stroke:#A80036;stroke-width:1.5;" x1="1020" x2="1116" y1="327" y2="327"/><!--MD5=[8b0a262cba10c08c42aa48577ca6c320]
class MoteurThermique--><rect codeLine="42" fill="#FEFECE" filter="url(#f11elo3ry0wk06)" height="48" id="MoteurThermique" style="stroke:#A80036;stroke-width:1.5;" width="139" x="674.5" y="287"/><ellipse cx="689.5" cy="303" fill="#B4A7E5" rx="11" ry="11" style="stroke:#A80036;stroke-width:1.0;"/><path d="M690.4531,299.7813 L692.1719,299.7813 C692.5625,299.7813 692.75,299.75 692.875,299.6719 C693.1406,299.5156 693.2813,299.2344 693.2813,298.9375 C693.2813,298.6719 693.1719,298.4063 692.9375,298.2344 C692.7656,298.125 692.625,298.0938 692.1719,298.0938 L687.0313,298.0938 C686.5938,298.0938 686.4688,298.1094 686.3125,298.2031 C686.0625,298.3594 685.9063,298.6563 685.9063,298.9375 C685.9063,299.2188 686.0469,299.4688 686.2656,299.6406 C686.4219,299.75 686.6094,299.7813 687.0313,299.7813 L688.75,299.7813 L688.75,306.2969 L687.0313,306.2969 C686.5938,306.2969 686.4688,306.3125 686.3125,306.4219 C686.0625,306.5781 685.9063,306.8594 685.9063,307.1563 C685.9063,307.4063 686.0469,307.6719 686.2656,307.8281 C686.4219,307.9531 686.625,308 687.0313,308 L692.1719,308 C692.9219,308 693.2813,307.7188 693.2813,307.1563 C693.2813,306.875 693.1719,306.625 692.9375,306.4531 C692.7656,306.3281 692.625,306.2969 692.1719,306.2969 L690.4531,306.2969 L690.4531,299.7813 Z " fill="#000000"/><text fill="#000000" font-family="sans-serif" font-size="12" font-style="italic" lengthAdjust="spacing" textLength="107" x="703.5" y="307.1543">MoteurThermique</text><line style="stroke:#A80036;stroke-width:1.5;" x1="675.5" x2="812.5" y1="319" y2="319"/><line style="stroke:#A80036;stroke-width:1.5;" x1="675.5" x2="812.5" y1="327" y2="327"/><!--MD5=[61bf9e8042328896cfd120e658917e2e]
class MoteurElectrique--><rect codeLine="46" fill="#FEFECE" filter="url(#f11elo3ry0wk06)" height="48" id="MoteurElectrique" style="stroke:#A80036;stroke-width:1.5;" width="135" x="848.5" y="287"/><ellipse cx="863.5" cy="303" fill="#B4A7E5" rx="11" ry="11" style="stroke:#A80036;stroke-width:1.0;"/><path d="M864.4531,299.7813 L866.1719,299.7813 C866.5625,299.7813 866.75,299.75 866.875,299.6719 C867.1406,299.5156 867.2813,299.2344 867.2813,298.9375 C867.2813,298.6719 867.1719,298.4063 866.9375,298.2344 C866.7656,298.125 866.625,298.0938 866.1719,298.0938 L861.0313,298.0938 C860.5938,298.0938 860.4688,298.1094 860.3125,298.2031 C860.0625,298.3594 859.9063,298.6563 859.9063,298.9375 C859.9063,299.2188 860.0469,299.4688 860.2656,299.6406 C860.4219,299.75 860.6094,299.7813 861.0313,299.7813 L862.75,299.7813 L862.75,306.2969 L861.0313,306.2969 C860.5938,306.2969 860.4688,306.3125 860.3125,306.4219 C860.0625,306.5781 859.9063,306.8594 859.9063,307.1563 C859.9063,307.4063 860.0469,307.6719 860.2656,307.8281 C860.4219,307.9531 860.625,308 861.0313,308 L866.1719,308 C866.9219,308 867.2813,307.7188 867.2813,307.1563 C867.2813,306.875 867.1719,306.625 866.9375,306.4531 C866.7656,306.3281 866.625,306.2969 866.1719,306.2969 L864.4531,306.2969 L864.4531,299.7813 Z " fill="#000000"/><text fill="#000000" font-family="sans-serif" font-size="12" font-style="italic" lengthAdjust="spacing" textLength="103" x="877.5" y="307.1543">MoteurElectrique</text><line style="stroke:#A80036;stroke-width:1.5;" x1="849.5" x2="982.5" y1="319" y2="319"/><line style="stroke:#A80036;stroke-width:1.5;" x1="849.5" x2="982.5" y1="327" y2="327"/><!--MD5=[8f0dd69b1341f5f2a3033ae885641ba2]
class MoteurHybride--><rect codeLine="50" fill="#FEFECE" filter="url(#f11elo3ry0wk06)" height="48" id="MoteurHybride" style="stroke:#A80036;stroke-width:1.5;" width="121" x="814.5" y="427"/><ellipse cx="829.5" cy="443" fill="#B4A7E5" rx="11" ry="11" style="stroke:#A80036;stroke-width:1.0;"/><path d="M830.4531,439.7813 L832.1719,439.7813 C832.5625,439.7813 832.75,439.75 832.875,439.6719 C833.1406,439.5156 833.2813,439.2344 833.2813,438.9375 C833.2813,438.6719 833.1719,438.4063 832.9375,438.2344 C832.7656,438.125 832.625,438.0938 832.1719,438.0938 L827.0313,438.0938 C826.5938,438.0938 826.4688,438.1094 826.3125,438.2031 C826.0625,438.3594 825.9063,438.6563 825.9063,438.9375 C825.9063,439.2188 826.0469,439.4688 826.2656,439.6406 C826.4219,439.75 826.6094,439.7813 827.0313,439.7813 L828.75,439.7813 L828.75,446.2969 L827.0313,446.2969 C826.5938,446.2969 826.4688,446.3125 826.3125,446.4219 C826.0625,446.5781 825.9063,446.8594 825.9063,447.1563 C825.9063,447.4063 826.0469,447.6719 826.2656,447.8281 C826.4219,447.9531 826.625,448 827.0313,448 L832.1719,448 C832.9219,448 833.2813,447.7188 833.2813,447.1563 C833.2813,446.875 833.1719,446.625 832.9375,446.4531 C832.7656,446.3281 832.625,446.2969 832.1719,446.2969 L830.4531,446.2969 L830.4531,439.7813 Z " fill="#000000"/><text fill="#000000" font-family="sans-serif" font-size="12" font-style="italic" lengthAdjust="spacing" textLength="89" x="843.5" y="447.1543">MoteurHybride</text><line style="stroke:#A80036;stroke-width:1.5;" x1="815.5" x2="934.5" y1="459" y2="459"/><line style="stroke:#A80036;stroke-width:1.5;" x1="815.5" x2="934.5" y1="467" y2="467"/><!--MD5=[9b483aa89f34cf1bdd90ddcb81313a4b]
class Garage--><rect codeLine="54" fill="#FEFECE" filter="url(#f11elo3ry0wk06)" height="60.8047" id="Garage" style="stroke:#A80036;stroke-width:1.5;" width="240" x="432" y="7"/><ellipse cx="526.25" cy="23" fill="#B4A7E5" rx="11" ry="11" style="stroke:#A80036;stroke-width:1.0;"/><path d="M527.2031,19.7813 L528.9219,19.7813 C529.3125,19.7813 529.5,19.75 529.625,19.6719 C529.8906,19.5156 530.0313,19.2344 530.0313,18.9375 C530.0313,18.6719 529.9219,18.4063 529.6875,18.2344 C529.5156,18.125 529.375,18.0938 528.9219,18.0938 L523.7813,18.0938 C523.3438,18.0938 523.2188,18.1094 523.0625,18.2031 C522.8125,18.3594 522.6563,18.6563 522.6563,18.9375 C522.6563,19.2188 522.7969,19.4688 523.0156,19.6406 C523.1719,19.75 523.3594,19.7813 523.7813,19.7813 L525.5,19.7813 L525.5,26.2969 L523.7813,26.2969 C523.3438,26.2969 523.2188,26.3125 523.0625,26.4219 C522.8125,26.5781 522.6563,26.8594 522.6563,27.1563 C522.6563,27.4063 522.7969,27.6719 523.0156,27.8281 C523.1719,27.9531 523.375,28 523.7813,28 L528.9219,28 C529.6719,28 530.0313,27.7188 530.0313,27.1563 C530.0313,26.875 529.9219,26.625 529.6875,26.4531 C529.5156,26.3281 529.375,26.2969 528.9219,26.2969 L527.2031,26.2969 L527.2031,19.7813 Z " fill="#000000"/><text fill="#000000" font-family="sans-serif" font-size="12" font-style="italic" lengthAdjust="spacing" textLength="43" x="546.75" y="27.1543">Garage</text><line style="stroke:#A80036;stroke-width:1.5;" x1="433" x2="671" y1="39" y2="39"/><line style="stroke:#A80036;stroke-width:1.5;" x1="433" x2="671" y1="47" y2="47"/><ellipse cx="443" cy="58" fill="#84BE84" rx="3" ry="3" style="stroke:#038048;stroke-width:1.0;"/><text fill="#000000" font-family="sans-serif" font-size="11" lengthAdjust="spacing" textLength="214" x="452" y="61.2104">getVehicules(): List&lt;VehiculeARoue&gt;</text><!--MD5=[6198733cf0505d29a84461dda3cd8f06]
class Fusee--><rect codeLine="58" fill="#FEFECE" filter="url(#f11elo3ry0wk06)" height="73.6094" id="Fusee" style="stroke:#A80036;stroke-width:1.5;" width="217" x="322.5" y="274"/><ellipse cx="409.25" cy="290" fill="#B4A7E5" rx="11" ry="11" style="stroke:#A80036;stroke-width:1.0;"/><path d="M410.2031,286.7813 L411.9219,286.7813 C412.3125,286.7813 412.5,286.75 412.625,286.6719 C412.8906,286.5156 413.0313,286.2344 413.0313,285.9375 C413.0313,285.6719 412.9219,285.4063 412.6875,285.2344 C412.5156,285.125 412.375,285.0938 411.9219,285.0938 L406.7813,285.0938 C406.3438,285.0938 406.2188,285.1094 406.0625,285.2031 C405.8125,285.3594 405.6563,285.6563 405.6563,285.9375 C405.6563,286.2188 405.7969,286.4688 406.0156,286.6406 C406.1719,286.75 406.3594,286.7813 406.7813,286.7813 L408.5,286.7813 L408.5,293.2969 L406.7813,293.2969 C406.3438,293.2969 406.2188,293.3125 406.0625,293.4219 C405.8125,293.5781 405.6563,293.8594 405.6563,294.1563 C405.6563,294.4063 405.7969,294.6719 406.0156,294.8281 C406.1719,294.9531 406.375,295 406.7813,295 L411.9219,295 C412.6719,295 413.0313,294.7188 413.0313,294.1563 C413.0313,293.875 412.9219,293.625 412.6875,293.4531 C412.5156,293.3281 412.375,293.2969 411.9219,293.2969 L410.2031,293.2969 L410.2031,286.7813 Z " fill="#000000"/><text fill="#000000" font-family="sans-serif" font-size="12" font-style="italic" lengthAdjust="spacing" textLength="35" x="429.75" y="294.1543">Fusee</text><line style="stroke:#A80036;stroke-width:1.5;" x1="323.5" x2="538.5" y1="306" y2="306"/><line style="stroke:#A80036;stroke-width:1.5;" x1="323.5" x2="538.5" y1="314" y2="314"/><ellipse cx="333.5" cy="325" fill="#84BE84" rx="3" ry="3" style="stroke:#038048;stroke-width:1.0;"/><text fill="#000000" font-family="sans-serif" font-size="11" lengthAdjust="spacing" textLength="191" x="342.5" y="328.2104">getMoteurs(): List&lt;MoteurAErgol&gt;</text><ellipse cx="333.5" cy="337.8047" fill="#84BE84" rx="3" ry="3" style="stroke:#038048;stroke-width:1.0;"/><text fill="#000000" font-family="sans-serif" font-size="11" lengthAdjust="spacing" textLength="74" x="342.5" y="341.0151">lancer(): void</text><!--MD5=[768a5be7baaad3853e069ce987c819d9]
class MoteurAErgol--><rect codeLine="63" fill="#FEFECE" filter="url(#f11elo3ry0wk06)" height="60.8047" id="MoteurAErgol" style="stroke:#A80036;stroke-width:1.5;" width="239" x="500.5" y="420.5"/><ellipse cx="575.25" cy="436.5" fill="#B4A7E5" rx="11" ry="11" style="stroke:#A80036;stroke-width:1.0;"/><path d="M576.2031,433.2813 L577.9219,433.2813 C578.3125,433.2813 578.5,433.25 578.625,433.1719 C578.8906,433.0156 579.0313,432.7344 579.0313,432.4375 C579.0313,432.1719 578.9219,431.9063 578.6875,431.7344 C578.5156,431.625 578.375,431.5938 577.9219,431.5938 L572.7813,431.5938 C572.3438,431.5938 572.2188,431.6094 572.0625,431.7031 C571.8125,431.8594 571.6563,432.1563 571.6563,432.4375 C571.6563,432.7188 571.7969,432.9688 572.0156,433.1406 C572.1719,433.25 572.3594,433.2813 572.7813,433.2813 L574.5,433.2813 L574.5,439.7969 L572.7813,439.7969 C572.3438,439.7969 572.2188,439.8125 572.0625,439.9219 C571.8125,440.0781 571.6563,440.3594 571.6563,440.6563 C571.6563,440.9063 571.7969,441.1719 572.0156,441.3281 C572.1719,441.4531 572.375,441.5 572.7813,441.5 L577.9219,441.5 C578.6719,441.5 579.0313,441.2188 579.0313,440.6563 C579.0313,440.375 578.9219,440.125 578.6875,439.9531 C578.5156,439.8281 578.375,439.7969 577.9219,439.7969 L576.2031,439.7969 L576.2031,433.2813 Z " fill="#000000"/><text fill="#000000" font-family="sans-serif" font-size="12" font-style="italic" lengthAdjust="spacing" textLength="81" x="595.75" y="440.6543">MoteurAErgol</text><line style="stroke:#A80036;stroke-width:1.5;" x1="501.5" x2="738.5" y1="452.5" y2="452.5"/><line style="stroke:#A80036;stroke-width:1.5;" x1="501.5" x2="738.5" y1="460.5" y2="460.5"/><ellipse cx="511.5" cy="471.5" fill="#84BE84" rx="3" ry="3" style="stroke:#038048;stroke-width:1.0;"/><text fill="#000000" font-family="sans-serif" font-size="11" lengthAdjust="spacing" textLength="213" x="520.5" y="474.7104">setReservoir(ResevoirErgol reservoir)</text><!--MD5=[4870d1240fe34287e52f6db8a63e05a9]
class ReservoirErgol--><rect codeLine="67" fill="#FEFECE" filter="url(#f11elo3ry0wk06)" height="48" id="ReservoirErgol" style="stroke:#A80036;stroke-width:1.5;" width="118" x="561" y="554"/><ellipse cx="576" cy="570" fill="#B4A7E5" rx="11" ry="11" style="stroke:#A80036;stroke-width:1.0;"/><path d="M576.9531,566.7813 L578.6719,566.7813 C579.0625,566.7813 579.25,566.75 579.375,566.6719 C579.6406,566.5156 579.7813,566.2344 579.7813,565.9375 C579.7813,565.6719 579.6719,565.4063 579.4375,565.2344 C579.2656,565.125 579.125,565.0938 578.6719,565.0938 L573.5313,565.0938 C573.0938,565.0938 572.9688,565.1094 572.8125,565.2031 C572.5625,565.3594 572.4063,565.6563 572.4063,565.9375 C572.4063,566.2188 572.5469,566.4688 572.7656,566.6406 C572.9219,566.75 573.1094,566.7813 573.5313,566.7813 L575.25,566.7813 L575.25,573.2969 L573.5313,573.2969 C573.0938,573.2969 572.9688,573.3125 572.8125,573.4219 C572.5625,573.5781 572.4063,573.8594 572.4063,574.1563 C572.4063,574.4063 572.5469,574.6719 572.7656,574.8281 C572.9219,574.9531 573.125,575 573.5313,575 L578.6719,575 C579.4219,575 579.7813,574.7188 579.7813,574.1563 C579.7813,573.875 579.6719,573.625 579.4375,573.4531 C579.2656,573.3281 579.125,573.2969 578.6719,573.2969 L576.9531,573.2969 L576.9531,566.7813 Z " fill="#000000"/><text fill="#000000" font-family="sans-serif" font-size="12" font-style="italic" lengthAdjust="spacing" textLength="86" x="590" y="574.1543">ReservoirErgol</text><line style="stroke:#A80036;stroke-width:1.5;" x1="562" x2="678" y1="586" y2="586"/><line style="stroke:#A80036;stroke-width:1.5;" x1="562" x2="678" y1="594" y2="594"/><!--MD5=[4c7dcb8d819b6526e0b07a651c47c813]
class TeslaS--><rect codeLine="74" fill="#FEFECE" filter="url(#f11elo3ry0wk06)" height="86.4141" id="TeslaS" style="stroke:#A80036;stroke-width:1.5;" width="269" x="115.5" y="408"/><ellipse cx="225.75" cy="424" fill="#ADD1B2" rx="11" ry="11" style="stroke:#A80036;stroke-width:1.0;"/><path d="M228.0938,419.6719 C227.1563,419.2344 226.5625,419.0938 225.6875,419.0938 C223.0625,419.0938 221.0625,421.1719 221.0625,423.8906 L221.0625,425.0156 C221.0625,427.5938 223.1719,429.4844 226.0625,429.4844 C227.2813,429.4844 228.4375,429.1875 229.1875,428.6406 C229.7656,428.2344 230.0938,427.7813 230.0938,427.3906 C230.0938,426.9375 229.7031,426.5469 229.2344,426.5469 C229.0156,426.5469 228.8125,426.625 228.625,426.8125 C228.1719,427.2969 228.1719,427.2969 227.9844,427.3906 C227.5625,427.6563 226.875,427.7813 226.1094,427.7813 C224.0625,427.7813 222.7656,426.6875 222.7656,424.9844 L222.7656,423.8906 C222.7656,422.1094 224.0156,420.7969 225.75,420.7969 C226.3281,420.7969 226.9375,420.9531 227.4063,421.2031 C227.8906,421.4844 228.0625,421.7031 228.1563,422.1094 C228.2188,422.5156 228.25,422.6406 228.3906,422.7656 C228.5313,422.9063 228.7656,423.0156 228.9844,423.0156 C229.25,423.0156 229.5156,422.875 229.6875,422.6563 C229.7969,422.5 229.8281,422.3125 229.8281,421.8906 L229.8281,420.4688 C229.8281,420.0313 229.8125,419.9063 229.7188,419.75 C229.5625,419.4844 229.2813,419.3438 228.9844,419.3438 C228.6875,419.3438 228.4844,419.4375 228.2656,419.75 L228.0938,419.6719 Z " fill="#000000"/><text fill="#000000" font-family="sans-serif" font-size="12" lengthAdjust="spacing" textLength="40" x="246.25" y="428.1543">TeslaS</text><line style="stroke:#A80036;stroke-width:1.5;" x1="116.5" x2="383.5" y1="440" y2="440"/><line style="stroke:#A80036;stroke-width:1.5;" x1="116.5" x2="383.5" y1="448" y2="448"/><ellipse cx="126.5" cy="459" fill="#84BE84" rx="3" ry="3" style="stroke:#038048;stroke-width:1.0;"/><text fill="#000000" font-family="sans-serif" font-size="11" lengthAdjust="spacing" textLength="112" x="135.5" y="462.2104">getMoteur(): Moteur</text><ellipse cx="126.5" cy="471.8047" fill="#84BE84" rx="3" ry="3" style="stroke:#038048;stroke-width:1.0;"/><text fill="#000000" font-family="sans-serif" font-size="11" lengthAdjust="spacing" textLength="83" x="135.5" y="475.0151">getRoues(): int</text><ellipse cx="126.5" cy="484.6094" fill="#84BE84" rx="3" ry="3" style="stroke:#038048;stroke-width:1.0;"/><text fill="#000000" font-family="sans-serif" font-size="11" lengthAdjust="spacing" textLength="243" x="135.5" y="487.8198">transporter(List&lt;Passage&gt; passages): void</text><!--MD5=[4066a9933375868b65c8410cf95c8c04]
reverse link Vehicule to VehiculeARoue--><path d="M262,88.185 C262,105.677 262,124.785 262,140.132 " fill="none" id="Vehicule-backto-VehiculeARoue" style="stroke:#A80036;stroke-width:1.0;"/><polygon fill="none" points="255,88.011,262,68.011,269,88.011,255,88.011" style="stroke:#A80036;stroke-width:1.0;"/><!--MD5=[285d8b0649180fc15cd187ae0bf7043c]
reverse link Vehicule to VehiculeMotorise--><path d="M209.212,80.57 C184.778,100.044 156.329,122.717 134.191,140.36 " fill="none" id="Vehicule-backto-VehiculeMotorise" style="stroke:#A80036;stroke-width:1.0;"/><polygon fill="none" points="204.968,75.002,224.971,68.011,213.693,85.95,204.968,75.002" style="stroke:#A80036;stroke-width:1.0;"/><!--MD5=[7e9a4c0629781d4b884ba162dd68f4b4]
reverse link VehiculeARoue to Voiture--><path d="M257.679,221.697 C255.745,243.933 253.558,269.078 252.015,286.833 " fill="none" id="VehiculeARoue-backto-Voiture" style="stroke:#A80036;stroke-width:1.0;"/><polygon fill="none" points="250.719,220.923,259.426,201.604,264.667,222.136,250.719,220.923" style="stroke:#A80036;stroke-width:1.0;"/><!--MD5=[29fd6cb4b740d736e52854056cda0027]
reverse link VehiculeMotorise to Voiture--><path d="M144.958,215.257 C171.213,238.937 202.703,267.34 224.314,286.833 " fill="none" id="VehiculeMotorise-backto-Voiture" style="stroke:#A80036;stroke-width:1.0;"/><polygon fill="none" points="139.985,220.198,129.822,201.604,149.362,209.802,139.985,220.198" style="stroke:#A80036;stroke-width:1.0;"/><!--MD5=[a48c64e6c146ff0008ed504b2d4a70c1]
reverse link VehiculeARoue to Moto--><path d="M224.276,217.269 C204.892,240.53 182.093,267.889 166.306,286.833 " fill="none" id="VehiculeARoue-backto-Moto" style="stroke:#A80036;stroke-width:1.0;"/><polygon fill="none" points="219.148,212.488,237.33,201.604,229.903,221.45,219.148,212.488" style="stroke:#A80036;stroke-width:1.0;"/><!--MD5=[0a4a8ddf829854919f7b067af3c234db]
reverse link VehiculeMotorise to Moto--><path d="M114.633,220.667 C122.78,243.154 132.074,268.804 138.606,286.833 " fill="none" id="VehiculeMotorise-backto-Moto" style="stroke:#A80036;stroke-width:1.0;"/><polygon fill="none" points="107.958,222.793,107.726,201.604,121.121,218.024,107.958,222.793" style="stroke:#A80036;stroke-width:1.0;"/><!--MD5=[26f089333f9a3fd72562a9551aa1cf6d]
reverse link VehiculeVolant to Avion--><path d="M484.895,214.259 C515.346,238.135 552.242,267.065 577.453,286.833 " fill="none" id="VehiculeVolant-backto-Avion" style="stroke:#A80036;stroke-width:1.0;"/><polygon fill="none" points="480.176,219.454,468.756,201.604,488.814,208.437,480.176,219.454" style="stroke:#A80036;stroke-width:1.0;"/><!--MD5=[67c5e01204d211b32c06329b54111ea1]
reverse link VehiculeMotorise to Bateau--><path d="M78.4404,220.325 C69.773,242.893 59.8569,268.712 52.8976,286.833 " fill="none" id="VehiculeMotorise-backto-Bateau" style="stroke:#A80036;stroke-width:1.0;"/><polygon fill="none" points="71.925,217.765,85.6302,201.604,84.9942,222.785,71.925,217.765" style="stroke:#A80036;stroke-width:1.0;"/><!--MD5=[7da2ea1c2aa5b09ba67135b9e81d9ff6]
reverse link Vehicule to VehiculeVolant--><path d="M316.067,80.57 C341.095,100.044 370.233,122.717 392.908,140.36 " fill="none" id="Vehicule-backto-VehiculeVolant" style="stroke:#A80036;stroke-width:1.0;"/><polygon fill="none" points="311.413,85.818,299.927,68.011,320.01,74.769,311.413,85.818" style="stroke:#A80036;stroke-width:1.0;"/><!--MD5=[d16847b58f464ea3ee5741bb495832af]
reverse link Moteur to MoteurXXX--><path d="M977.424,227.766 C1000.201,248.445 1024.79,270.772 1042.6,286.936 " fill="none" id="Moteur-backto-MoteurXXX" style="stroke:#A80036;stroke-width:1.0;stroke-dasharray:7.0,7.0;"/><polygon fill="none" points="972.533,232.781,962.431,214.154,981.944,222.416,972.533,232.781" style="stroke:#A80036;stroke-width:1.0;"/><!--MD5=[4657ede9bb4e108df7d597fe6a4afa2c]
reverse link Moteur to MoteurThermique--><path d="M847.603,226.877 C821.521,247.803 793.182,270.54 772.747,286.936 " fill="none" id="Moteur-backto-MoteurThermique" style="stroke:#A80036;stroke-width:1.0;"/><polygon fill="none" points="843.479,221.211,863.46,214.154,852.241,232.13,843.479,221.211" style="stroke:#A80036;stroke-width:1.0;"/><!--MD5=[5a03481d07b8b25b1860f44973a7823b]
reverse link Moteur to MoteurElectrique--><path d="M916,234.342 C916,253.077 916,272.473 916,286.936 " fill="none" id="Moteur-backto-MoteurElectrique" style="stroke:#A80036;stroke-width:1.0;"/><polygon fill="none" points="909,234.154,916,214.154,923,234.154,909,234.154" style="stroke:#A80036;stroke-width:1.0;"/><!--MD5=[9ad55f73e27de35ffb31f31b7282efb3]
reverse link MoteurThermique to MoteurHybride--><path d="M779.865,349.782 C803.261,374.427 833.047,405.806 853.002,426.827 " fill="none" id="MoteurThermique-backto-MoteurHybride" style="stroke:#A80036;stroke-width:1.0;"/><polygon fill="none" points="774.619,354.423,765.926,335.098,784.773,344.784,774.619,354.423" style="stroke:#A80036;stroke-width:1.0;"/><!--MD5=[43ab8c2ee6c9f2103df8b2a3d4877136]
reverse link MoteurElectrique to MoteurHybride--><path d="M903.4,354.41 C896.316,378.255 887.745,407.101 881.885,426.827 " fill="none" id="MoteurElectrique-backto-MoteurHybride" style="stroke:#A80036;stroke-width:1.0;"/><polygon fill="none" points="896.731,352.276,909.138,335.098,910.152,356.263,896.731,352.276" style="stroke:#A80036;stroke-width:1.0;"/><!--MD5=[fcb912fb47556ee2ad1a6dc7cb9ade6e]
reverse link VehiculeVolant to Fusee--><path d="M431,221.762 C431,238.969 431,257.911 431,273.819 " fill="none" id="VehiculeVolant-backto-Fusee" style="stroke:#A80036;stroke-width:1.0;"/><polygon fill="none" points="424,221.604,431,201.604,438,221.604,424,221.604" style="stroke:#A80036;stroke-width:1.0;"/><!--MD5=[3fb92bb53fa78dfae2a34494a9d3a392]
reverse link MoteurThermique to MoteurAErgol--><path d="M709.804,350.057 C689.967,372.133 665.341,399.54 646.897,420.067 " fill="none" id="MoteurThermique-backto-MoteurAErgol" style="stroke:#A80036;stroke-width:1.0;"/><polygon fill="none" points="704.671,345.296,723.245,335.098,715.085,354.653,704.671,345.296" style="stroke:#A80036;stroke-width:1.0;"/><!--MD5=[04c838a760051ffd61ac7109007d6558]
link MoteurAErgol to ReservoirErgol--><path codeLine="71" d="M620,481.623 C620,499.314 620,521.9175 620,540.6793 " fill="none" id="MoteurAErgol-to-ReservoirErgol" style="stroke:#A80036;stroke-width:1.0;"/><polygon fill="#FFFFFF" points="620,553.8339,624,547.8339,620,541.8339,616,547.8339,620,553.8339" style="stroke:#A80036;stroke-width:1.0;"/><text fill="#000000" font-family="sans-serif" font-size="13" lengthAdjust="spacing" textLength="8" x="611.175" y="501.5866">n</text><text fill="#000000" font-family="sans-serif" font-size="13" lengthAdjust="spacing" textLength="8" x="610.975" y="542.8034">1</text><!--MD5=[a888f79ba7fb70f4de20537dfe484950]
link Fusee to MoteurAErgol--><path codeLine="72" d="M480.658,348.258 C507.886,368.139 541.579,392.74 569.013,412.772 " fill="none" id="Fusee-to-MoteurAErgol" style="stroke:#A80036;stroke-width:1.0;"/><polygon fill="#FFFFFF" points="579.578,420.485,577.0911,413.7163,569.8865,413.4086,572.3735,420.1773,579.578,420.485" style="stroke:#A80036;stroke-width:1.0;"/><text fill="#000000" font-family="sans-serif" font-size="13" lengthAdjust="spacing" textLength="20" x="548.5482" y="409.272">1,n</text><!--MD5=[d2ce5eee0ba712f0754370091761dc52]
reverse link Voiture to TeslaS--><path d="M250,355.357 C250,372.106 250,391.205 250,407.838 " fill="none" id="Voiture-backto-TeslaS" style="stroke:#A80036;stroke-width:1.0;stroke-dasharray:7.0,7.0;"/><polygon fill="none" points="243,355.098,250,335.098,257,355.098,243,355.098" style="stroke:#A80036;stroke-width:1.0;"/><!--MD5=[24036a9ea48fd5384c5391a7aa90b1e7]
@startuml
interface Vehicule {
    + transporter(List<Passage> passages): void
}

interface VehiculeARoue extends Vehicule {
    + getRoues(): int
}

interface VehiculeMotorise extends Vehicule {
    + getMoteur(): Moteur
}

interface Voiture extends VehiculeARoue, VehiculeMotorise {

}

interface Moto extends VehiculeARoue, VehiculeMotorise {

}

interface Avion extends VehiculeVolant {
    
}

interface Bateau extends VehiculeMotorise {
}

interface VehiculeVolant extends Vehicule{
+ voler(): void
}

interface Moteur {
    + demarrer(): void
    + arreter(): void
    + accelerer(): void
}

class MoteurXXX implements Moteur{

}

interface MoteurThermique extends Moteur {

}

interface MoteurElectrique extends Moteur {

}

interface MoteurHybride extends MoteurThermique, MoteurElectrique {

}

interface Garage {
    + getVehicules(): List<VehiculeARoue>
}

interface Fusee extends VehiculeVolant{
    + getMoteurs(): List<MoteurAErgol>
    + lancer(): void
}

interface MoteurAErgol extends MoteurThermique{
    + setReservoir(ResevoirErgol reservoir)
}

interface ReservoirErgol {

}

MoteurAErgol "n" - -o "1" ReservoirErgol
Fusee - -o "1,n" MoteurAErgol

class TeslaS implements Voiture {
    + getMoteur(): Moteur
    + getRoues(): int
    + transporter(List<Passage> passages): void
}
@enduml

PlantUML version 1.2020.27beta8(Unknown compile time)
(GPL source distribution)
Java Runtime: Java(TM) SE Runtime Environment
JVM: Java HotSpot(TM) 64-Bit Server VM
Default Encoding: UTF-8
Language: en
Country: US
--></g></svg>